<svg xmlns="http://www.w3.org/2000/svg" xmlns:xlink="http://www.w3.org/1999/xlink" xmlns:lucid="lucid" width="2000" height="1024.93"><g transform="translate(-5.684341886080802e-14 -157.33333333333354)" lucid:page-tab-id="0_0"><path d="M0 163.33a6 6 0 0 1 6-6h921.33a6 6 0 0 1 6 6V443.2a6 6 0 0 1-6 6H6a6 6 0 0 1-6-6z" stroke="#000" stroke-opacity="0" stroke-width="3" fill="#108643" fill-opacity=".2"/><use xlink:href="#a" transform="matrix(1,0,0,1,5.000000000000057,162.33333333333354) translate(7.415432098766132 58.09513888888881)"/><use xlink:href="#b" transform="matrix(1,0,0,1,5.000000000000057,162.33333333333354) translate(269.70802469135833 58.09513888888881)"/><use xlink:href="#c" transform="matrix(1,0,0,1,5.000000000000057,162.33333333333354) translate(595.1969135802467 58.09513888888881)"/><use xlink:href="#d" transform="matrix(1,0,0,1,5.000000000000057,162.33333333333354) translate(689.8981481481478 58.09513888888881)"/><use xlink:href="#e" transform="matrix(1,0,0,1,5.000000000000057,162.33333333333354) translate(73.31481481481546 158.76180555555533)"/><use xlink:href="#f" transform="matrix(1,0,0,1,5.000000000000057,162.33333333333354) translate(142.29012345679067 158.76180555555533)"/><use xlink:href="#g" transform="matrix(1,0,0,1,5.000000000000057,162.33333333333354) translate(768.8469135802465 158.76180555555533)"/><use xlink:href="#h" transform="matrix(1,0,0,1,5.000000000000057,162.33333333333354) translate(174.91358024691397 259.42847222222184)"/><use xlink:href="#i" transform="matrix(1,0,0,1,5.000000000000057,162.33333333333354) translate(377.73827160493835 259.42847222222184)"/><path d="M1066.67 529.87a6 6 0 0 1 6-6H1994a6 6 0 0 1 6 6v279.86a6 6 0 0 1-6 6h-921.33a6 6 0 0 1-6-6z" stroke="#000" stroke-opacity="0" stroke-width="3" fill="#108643" fill-opacity=".2"/><use xlink:href="#j" transform="matrix(1,0,0,1,1071.666666666667,528.8666666666668) translate(25.684567901235255 58.09513888888881)"/><use xlink:href="#e" transform="matrix(1,0,0,1,1071.666666666667,528.8666666666668) translate(321.532716049383 58.09513888888881)"/><use xlink:href="#k" transform="matrix(1,0,0,1,1071.666666666667,528.8666666666668) translate(390.5080246913582 58.09513888888881)"/><use xlink:href="#l" transform="matrix(1,0,0,1,1071.666666666667,528.8666666666668) translate(540.9487654320986 58.09513888888881)"/><use xlink:href="#m" transform="matrix(1,0,0,1,1071.666666666667,528.8666666666668) translate(166.2450617283955 158.76180555555533)"/><use xlink:href="#n" transform="matrix(1,0,0,1,1071.666666666667,528.8666666666668) translate(283.6895061728398 158.76180555555533)"/><use xlink:href="#o" transform="matrix(1,0,0,1,1071.666666666667,528.8666666666668) translate(672.3746913580244 158.76180555555533)"/><use xlink:href="#p" transform="matrix(1,0,0,1,1071.666666666667,528.8666666666668) translate(270.9197530864201 259.42847222222184)"/><path d="M0 896.4a6 6 0 0 1 6-6h921.33a6 6 0 0 1 6 6v279.87a6 6 0 0 1-6 6H6a6 6 0 0 1-6-6z" stroke="#000" stroke-opacity="0" stroke-width="3" fill="#108643" fill-opacity=".2"/><g><use xlink:href="#q" transform="matrix(1,0,0,1,5.000000000000057,895.4000000000001) translate(229.62777777777814 58.09513888888881)"/><use xlink:href="#c" transform="matrix(1,0,0,1,5.000000000000057,895.4000000000001) translate(428.3512345679013 58.09513888888881)"/><use xlink:href="#r" transform="matrix(1,0,0,1,5.000000000000057,895.4000000000001) translate(523.0524691358023 58.09513888888881)"/><use xlink:href="#s" transform="matrix(1,0,0,1,5.000000000000057,895.4000000000001) translate(1.3567901234575288 158.76180555555533)"/><use xlink:href="#t" transform="matrix(1,0,0,1,5.000000000000057,895.4000000000001) translate(492.7592592592592 158.76180555555533)"/><use xlink:href="#u" transform="matrix(1,0,0,1,5.000000000000057,895.4000000000001) translate(595.2901234567898 158.76180555555533)"/><use xlink:href="#v" transform="matrix(1,0,0,1,5.000000000000057,895.4000000000001) translate(185.91234567901273 259.42847222222184)"/><use xlink:href="#w" transform="matrix(1,0,0,1,5.000000000000057,895.4000000000001) translate(409.4296296296297 259.42847222222184)"/><use xlink:href="#x" transform="matrix(1,0,0,1,5.000000000000057,895.4000000000001) translate(489.4037037037036 259.42847222222184)"/></g><path d="M0 529.87a6 6 0 0 1 6-6h921.33a6 6 0 0 1 6 6v279.86a6 6 0 0 1-6 6H6a6 6 0 0 1-6-6z" stroke="#000" stroke-opacity="0" stroke-width="3" fill="#108643" fill-opacity=".2"/><g><use xlink:href="#y" transform="matrix(1,0,0,1,5.000000000000057,528.8666666666668) translate(15.338271604938996 58.09513888888881)"/><use xlink:href="#z" transform="matrix(1,0,0,1,5.000000000000057,528.8666666666668) translate(549.4308641975307 58.09513888888881)"/><use xlink:href="#A" transform="matrix(1,0,0,1,5.000000000000057,528.8666666666668) translate(655.6901234567898 58.09513888888881)"/><use xlink:href="#B" transform="matrix(1,0,0,1,5.000000000000057,528.8666666666668) translate(2.3820987654327723 158.76180555555533)"/><use xlink:href="#C" transform="matrix(1,0,0,1,5.000000000000057,528.8666666666668) translate(426.6734567901235 158.76180555555533)"/><use xlink:href="#D" transform="matrix(1,0,0,1,5.000000000000057,528.8666666666668) translate(607.1277777777775 158.76180555555533)"/><use xlink:href="#E" transform="matrix(1,0,0,1,5.000000000000057,528.8666666666668) translate(869.4203703703697 158.76180555555533)"/><use xlink:href="#F" transform="matrix(1,0,0,1,5.000000000000057,528.8666666666668) translate(75.9246913580252 259.42847222222184)"/><use xlink:href="#G" transform="matrix(1,0,0,1,5.000000000000057,528.8666666666668) translate(275.2074074074076 259.42847222222184)"/><use xlink:href="#c" transform="matrix(1,0,0,1,5.000000000000057,528.8666666666668) translate(541.0419753086419 259.42847222222184)"/><use xlink:href="#H" transform="matrix(1,0,0,1,5.000000000000057,528.8666666666668) translate(635.743209876543 259.42847222222184)"/></g><path d="M1066.67 163.33a6 6 0 0 1 6-6H1994a6 6 0 0 1 6 6V443.2a6 6 0 0 1-6 6h-921.33a6 6 0 0 1-6-6z" stroke="#000" stroke-opacity="0" stroke-width="3" fill="#108643" fill-opacity=".2"/><g><use xlink:href="#I" transform="matrix(1,0,0,1,1071.666666666667,162.33333333333354) translate(41.43703703703761 58.09513888888881)"/><use xlink:href="#J" transform="matrix(1,0,0,1,1071.666666666667,162.33333333333354) translate(359.6555555555557 58.09513888888881)"/><use xlink:href="#E" transform="matrix(1,0,0,1,1071.666666666667,162.33333333333354) translate(830.3654320987649 58.09513888888881)"/><use xlink:href="#K" transform="matrix(1,0,0,1,1071.666666666667,162.33333333333354) translate(246.21913580246948 158.76180555555533)"/><use xlink:href="#L" transform="matrix(1,0,0,1,1071.666666666667,162.33333333333354) translate(393.3043209876544 158.76180555555533)"/><use xlink:href="#M" transform="matrix(1,0,0,1,1071.666666666667,162.33333333333354) translate(599.8574074074072 158.76180555555533)"/><use xlink:href="#N" transform="matrix(1,0,0,1,1071.666666666667,162.33333333333354) translate(44.97901234567968 259.42847222222184)"/><use xlink:href="#e" transform="matrix(1,0,0,1,1071.666666666667,162.33333333333354) translate(541.9740740740739 259.42847222222184)"/><use xlink:href="#O" transform="matrix(1,0,0,1,1071.666666666667,162.33333333333354) translate(610.9493827160491 259.42847222222184)"/></g><path d="M1066.67 899.07a6 6 0 0 1 6-6H1994a6 6 0 0 1 6 6v274.53a6 6 0 0 1-6 6h-921.33a6 6 0 0 1-6-6z" stroke="#000" stroke-opacity="0" stroke-width="3" fill="#108643" fill-opacity=".2"/><g><use xlink:href="#P" transform="matrix(1,0,0,1,1071.666666666667,898.0666666666666) translate(151.42469135802514 101.29826388888881)"/><use xlink:href="#Q" transform="matrix(1,0,0,1,1071.666666666667,898.0666666666666) translate(476.5407407407407 101.29826388888881)"/><use xlink:href="#E" transform="matrix(1,0,0,1,1071.666666666667,898.0666666666666) translate(720.3777777777774 101.29826388888881)"/><use xlink:href="#R" transform="matrix(1,0,0,1,1071.666666666667,898.0666666666666) translate(43.767283950617866 201.96493055555533)"/><use xlink:href="#S" transform="matrix(1,0,0,1,1071.666666666667,898.0666666666666) translate(425.18209876543216 201.96493055555533)"/><use xlink:href="#T" transform="matrix(1,0,0,1,1071.666666666667,898.0666666666666) translate(720.4709876543207 201.96493055555533)"/></g><defs><path fill="#333" d="M75-106v92l39 5v9H13v-9l28-5v-208l-31-4v-10h177v57h-11l-6-38c-28-4-63-3-95-3v98h69l5-28h11v73h-11l-5-29H75" id="U"/><path fill="#333" d="M84-170c49 0 66 33 63 87H46c-8 60 38 80 95 63v10C128-2 108 4 88 4 34 4 14-29 14-84c-1-54 22-86 70-86zm33 73c12-57-57-82-69-24-1 7-2 15-2 24h71" id="V"/><path fill="#333" d="M126-119c3-38-42-31-69-25v132l23 4v8H7v-8l21-4v-226l-24-4v-8h53l-1 98c31-22 99-31 99 31v109c7 3 23-1 20 12h-71v-8l22-4v-107" id="W"/><path fill="#333" d="M65-12l28 4v8H7v-8l28-4v-226l-28-4v-8h58v238" id="X"/><path fill="#333" d="M125-118c4-37-41-34-68-26v132l23 4v8H8C5-13 21-9 28-12v-141c-7-3-23 1-20-12h47l2 13c31-23 98-29 98 31v109c7 3 23-1 20 12h-72v-8l22-4v-106" id="Y"/><path fill="#333" d="M13-81c0-71 46-101 114-85l-1-72-28-4v-8h57v238c8 3 24-2 21 12h-47l-2-12C80 23 13-1 13-81zm77-74c-37 1-44 33-45 74 0 38 9 66 45 66 14 0 27-3 36-7v-130c-10-1-24-3-36-3" id="Z"/><g id="a"><use transform="matrix(0.18641975308641948,0,0,0.18641975308641948,0,0)" xlink:href="#U"/><use transform="matrix(0.18641975308641948,0,0,0.18641975308641948,37.28395061728389,0)" xlink:href="#V"/><use transform="matrix(0.18641975308641948,0,0,0.18641975308641948,66.92469135802459,0)" xlink:href="#W"/><use transform="matrix(0.18641975308641948,0,0,0.18641975308641948,100.4802469135801,0)" xlink:href="#X"/><use transform="matrix(0.18641975308641948,0,0,0.18641975308641948,119.12222222222205,0)" xlink:href="#V"/><use transform="matrix(0.18641975308641948,0,0,0.18641975308641948,148.76296296296272,0)" xlink:href="#Y"/><use transform="matrix(0.18641975308641948,0,0,0.18641975308641948,182.31851851851823,0)" xlink:href="#Z"/><use transform="matrix(0.18641975308641948,0,0,0.18641975308641948,215.87407407407375,0)" xlink:href="#V"/></g><path fill="#333" d="M199-173c-1 36-21 56-49 65l64 94 26 5v9h-57l-66-103H75v89l35 5v9H13v-9l28-5v-208l-31-4v-10c80 4 190-20 189 63zM75-119c50 2 89-1 89-51 0-49-39-52-89-50v101" id="aa"/><path fill="#333" d="M41-130c7 48 86 23 86 84 0 56-69 57-112 41v-40c20 0 9 29 31 31 35 19 77-26 41-50-27-18-72-13-72-59 0-50 58-52 100-41v36c-19 1-8-25-28-25-21-7-50-1-46 23" id="ab"/><path fill="#333" d="M90-170c52 0 76 32 76 87 0 54-24 87-77 87-51 0-75-34-75-87 0-54 24-87 76-87zM89-10c39 0 46-35 46-73 0-39-7-73-46-73-39 1-44 34-44 73s6 72 44 73" id="ac"/><path fill="#333" d="M124-13C89 8 26 15 26-45v-108c-8-3-24 2-21-12h50v118c-3 37 42 32 69 25v-131l-25-4v-8h54v153c8 3 24-2 21 12h-48" id="ad"/><path fill="#333" d="M57-145c16-10 35-24 60-25v45c-19 1-8-30-40-17l-20 6v124l29 4v8H7v-8l21-4v-141c-8-3-24 2-21-12h48" id="ae"/><path fill="#333" d="M45-84c0 64 52 80 104 63 1 25-30 25-55 25-56 0-80-32-80-88 0-76 62-98 131-80v46h-10c-5-15-4-31-23-35-47-10-67 21-67 69" id="af"/><g id="b"><use transform="matrix(0.18641975308641948,0,0,0.18641975308641948,0,0)" xlink:href="#aa"/><use transform="matrix(0.18641975308641948,0,0,0.18641975308641948,44.74074074074068,0)" xlink:href="#V"/><use transform="matrix(0.18641975308641948,0,0,0.18641975308641948,74.38148148148137,0)" xlink:href="#ab"/><use transform="matrix(0.18641975308641948,0,0,0.18641975308641948,100.4802469135801,0)" xlink:href="#ab"/><use transform="matrix(0.18641975308641948,0,0,0.18641975308641948,126.57901234567882,0)" xlink:href="#ac"/><use transform="matrix(0.18641975308641948,0,0,0.18641975308641948,160.13456790123433,0)" xlink:href="#ad"/><use transform="matrix(0.18641975308641948,0,0,0.18641975308641948,193.69012345678985,0)" xlink:href="#ae"/><use transform="matrix(0.18641975308641948,0,0,0.18641975308641948,215.8740740740738,0)" xlink:href="#af"/><use transform="matrix(0.18641975308641948,0,0,0.18641975308641948,245.51481481481449,0)" xlink:href="#V"/><use transform="matrix(0.18641975308641948,0,0,0.18641975308641948,275.15555555555517,0)" xlink:href="#Y"/></g><path fill="#333" d="M103-236c-39-15-35 32-34 71h44v15H69v136l35 6v8H15v-8l25-6v-136H11v-9l29-7c-6-59 23-100 80-84v36c-15 2-12-14-17-22" id="ag"/><path fill="#333" d="M124-13C89 8 26 15 26-45v-108c-8-3-24 2-21-12h50v118c-3 37 42 32 69 25v-131l-25-4v-8h54v153c8 3 24-2 21 12h-48zm-3-214c10 0 18 7 18 17 0 11-7 18-18 18-9 0-18-7-17-18 0-10 7-17 17-17zm-62 0c10 0 17 7 17 17s-7 18-17 18-19-7-18-18c0-11 8-17 18-17" id="ah"/><g id="c"><use transform="matrix(0.18641975308641948,0,0,0.18641975308641948,0,0)" xlink:href="#ag"/><use transform="matrix(0.18641975308641948,0,0,0.18641975308641948,22.18395061728392,0)" xlink:href="#ah"/><use transform="matrix(0.18641975308641948,0,0,0.18641975308641948,55.73950617283943,0)" xlink:href="#ae"/></g><path fill="#333" d="M178-68c0 79-95 82-154 59v-54h12c1 35 22 52 60 52 50 0 69-58 33-82-39-24-105-21-105-85 0-67 86-66 142-53v49h-12l-6-29c-31-27-121-7-89 42 28 43 119 24 119 101" id="ai"/><path fill="#333" d="M47-200c-23 0-25-39 0-38 13 0 18 7 20 19-1 11-8 19-20 19zM65-12l28 4v8H8v-8l28-4v-141l-24-4v-8h53v153" id="aj"/><path fill="#333" d="M53-14c58 12 82-15 82-73 0-52-35-77-82-58v131zM89 4C64 4 42-2 24-9v-229l-24-4v-8h53l-1 94c48-33 114-4 114 69 0 57-23 91-77 91" id="ak"/><path fill="#333" d="M13-71v-27h94v27H13" id="al"/><g id="d"><use transform="matrix(0.18641975308641948,0,0,0.18641975308641948,0,0)" xlink:href="#ai"/><use transform="matrix(0.18641975308641948,0,0,0.18641975308641948,37.28395061728389,0)" xlink:href="#af"/><use transform="matrix(0.18641975308641948,0,0,0.18641975308641948,66.92469135802459,0)" xlink:href="#W"/><use transform="matrix(0.18641975308641948,0,0,0.18641975308641948,100.4802469135801,0)" xlink:href="#ae"/><use transform="matrix(0.18641975308641948,0,0,0.18641975308641948,122.66419753086402,0)" xlink:href="#V"/><use transform="matrix(0.18641975308641948,0,0,0.18641975308641948,152.30493827160473,0)" xlink:href="#aj"/><use transform="matrix(0.18641975308641948,0,0,0.18641975308641948,170.94691358024667,0)" xlink:href="#ak"/><use transform="matrix(0.18641975308641948,0,0,0.18641975308641948,204.50246913580222,0)" xlink:href="#al"/></g><path fill="#333" d="M111-239c38 0 63 13 63 49-1 38-32 47-59 59l75 67c8-19 16-41 18-64l-25-5v-9h80v9l-24 5c-8 28-20 56-35 78l41 36 29 5v9h-61l-30-27C145 17 14 21 14-63c0-42 29-56 58-68-41-28-36-108 39-108zM48-65C44 2 142-2 171-38l-88-81c-20 9-33 25-35 54zm63-160c-53 0-37 70-8 82 23-7 40-18 40-49 0-22-11-33-32-33" id="am"/><use transform="matrix(0.18641975308641948,0,0,0.18641975308641948,0,0)" xlink:href="#am" id="e"/><path fill="#333" d="M134-16c44-1 70-21 70-64v-142l-32-4v-10h80v10l-30 4v141c0 57-33 84-91 85-58 0-93-26-93-82v-144l-30-4v-10h94v10l-30 4c7 82-31 209 62 206zm27-275c10 0 18 7 18 17 0 11-7 18-18 18-9 0-18-7-17-18 0-10 7-17 17-17zm-62 0c10 0 17 7 17 17s-7 18-17 18-19-7-18-18c0-11 8-17 18-17" id="an"/><path fill="#333" d="M54-38c-1 25 24 26 44 20v12C71 10 25 9 25-35v-115H4c-2-14 14-10 21-15l18-38h11v38h38v15H54v112" id="ao"/><path fill="#333" d="M10 0v-8l90-143c-23 2-54-4-70 6-5 8 1 26-14 24v-44h122v8L47-14c29-2 65 3 86-8l9-35h8l-5 57H10" id="ap"/><path fill="#333" d="M141-152c28 39 5 97-54 97-9 0-20-2-27-3L49-35c29 22 130-14 124 52-4 45-38 57-88 61C21 83-8 26 45-2 33-6 22-15 21-31l28-31c-19-9-28-26-28-51-2-51 53-65 100-52l38-20 7 8zM85 64c35 0 61-11 61-42 0-35-57-17-89-21-9 8-16 19-17 34 0 25 19 29 45 29zM52-113c1 26 7 46 35 44 28-1 34-16 35-44 0-26-6-43-34-43s-36 17-36 43" id="aq"/><path fill="#333" d="M32-163c41-10 102-14 102 39v112c8 3 24-2 21 12h-45l-4-17C83 13 3 13 13-46c-2-50 45-50 92-51 4-36-5-70-42-56-6 2-12 4-16 6-4 7 0 23-15 20v-36zM42-47c0 41 41 33 63 22v-59c-34 1-63-1-63 37" id="ar"/><g id="f"><use transform="matrix(0.18641975308641948,0,0,0.18641975308641948,0,0)" xlink:href="#an"/><use transform="matrix(0.18641975308641948,0,0,0.18641975308641948,48.28271604938264,0)" xlink:href="#ak"/><use transform="matrix(0.18641975308641948,0,0,0.18641975308641948,81.83827160493814,0)" xlink:href="#V"/><use transform="matrix(0.18641975308641948,0,0,0.18641975308641948,111.47901234567885,0)" xlink:href="#ae"/><use transform="matrix(0.18641975308641948,0,0,0.18641975308641948,133.66296296296275,0)" xlink:href="#ab"/><use transform="matrix(0.18641975308641948,0,0,0.18641975308641948,159.76172839506148,0)" xlink:href="#V"/><use transform="matrix(0.18641975308641948,0,0,0.18641975308641948,189.40246913580216,0)" xlink:href="#ao"/><use transform="matrix(0.18641975308641948,0,0,0.18641975308641948,208.04444444444408,0)" xlink:href="#ap"/><use transform="matrix(0.18641975308641948,0,0,0.18641975308641948,237.68518518518482,0)" xlink:href="#ad"/><use transform="matrix(0.18641975308641948,0,0,0.18641975308641948,271.2407407407403,0)" xlink:href="#Y"/><use transform="matrix(0.18641975308641948,0,0,0.18641975308641948,304.7962962962958,0)" xlink:href="#aq"/><use transform="matrix(0.18641975308641948,0,0,0.18641975308641948,338.3518518518513,0)" xlink:href="#ab"/><use transform="matrix(0.18641975308641948,0,0,0.18641975308641948,364.45061728395,0)" xlink:href="#ar"/><use transform="matrix(0.18641975308641948,0,0,0.18641975308641948,394.0913580246907,0)" xlink:href="#ad"/><use transform="matrix(0.18641975308641948,0,0,0.18641975308641948,427.6469135802462,0)" xlink:href="#ag"/><use transform="matrix(0.18641975308641948,0,0,0.18641975308641948,449.8308641975301,0)" xlink:href="#aq"/><use transform="matrix(0.18641975308641948,0,0,0.18641975308641948,483.3864197530856,0)" xlink:href="#ar"/><use transform="matrix(0.18641975308641948,0,0,0.18641975308641948,513.0271604938263,0)" xlink:href="#ak"/><use transform="matrix(0.18641975308641948,0,0,0.18641975308641948,546.5827160493818,0)" xlink:href="#V"/><use transform="matrix(0.18641975308641948,0,0,0.18641975308641948,576.2234567901226,0)" xlink:href="#Y"/></g><g id="g"><use transform="matrix(0.18641975308641948,0,0,0.18641975308641948,0,0)" xlink:href="#ak"/><use transform="matrix(0.18641975308641948,0,0,0.18641975308641948,33.55555555555551,0)" xlink:href="#V"/><use transform="matrix(0.18641975308641948,0,0,0.18641975308641948,63.196296296296204,0)" xlink:href="#aj"/></g><path fill="#333" d="M28-187c-12-75 106-90 122-25 3 10 4 22 4 37-23 3-47 5-46 31 3 50 59 42 59 99 0 50-56 58-94 40v-33c17-1 8 21 25 24 20 10 44 1 42-26-4-50-61-44-59-98 1-29 19-41 44-46-1-31-3-55-34-55-26 0-33 19-34 44V0H4v-8l24-4v-175" id="as"/><g id="h"><use transform="matrix(0.18641975308641948,0,0,0.18641975308641948,0,0)" xlink:href="#aq"/><use transform="matrix(0.18641975308641948,0,0,0.18641975308641948,33.55555555555551,0)" xlink:href="#ae"/><use transform="matrix(0.18641975308641948,0,0,0.18641975308641948,55.73950617283943,0)" xlink:href="#ac"/><use transform="matrix(0.18641975308641948,0,0,0.18641975308641948,89.29506172839493,0)" xlink:href="#as"/><use transform="matrix(0.18641975308641948,0,0,0.18641975308641948,122.85061728395044,0)" xlink:href="#V"/><use transform="matrix(0.18641975308641948,0,0,0.18641975308641948,152.49135802469112,0)" xlink:href="#Y"/></g><path fill="#333" d="M55 0v-9l38-5v-207c-22 1-53 0-70 4l-5 37H7v-56h207v56h-12l-5-37-70-3v206l37 5v9H55" id="at"/><path fill="#333" d="M156-12c7 3 23-1 20 12h-75v-8l22-4-38-58-45 58 23 4v8H3v-8l19-3 55-71-48-71c-7-3-23 1-20-12h75v8l-22 4 32 48 37-48-23-4v-8h59v8l-19 3-46 60" id="au"/><path fill="#333" d="M164-154L98 4H85L17-153c-7-3-20 0-17-12h77v8l-26 4L99-38l46-115-26-4v-8h61v8" id="av"/><path fill="#333" d="M126-118c4-37-42-32-68-25v131l24 4v8H8C5-13 21-9 28-12v-141c-7-3-23 1-20-12h48l1 13c22-15 77-30 92 2 32-22 104-36 104 29v109c8 3 24-2 21 12h-75v-8l25-4v-106c3-39-45-31-72-24 7 37 1 88 3 130l25 4v8h-78v-8l24-4v-106" id="aw"/><g id="i"><use transform="matrix(0.18641975308641948,0,0,0.18641975308641948,0,0)" xlink:href="#at"/><use transform="matrix(0.18641975308641948,0,0,0.18641975308641948,36.16543209876538,0)" xlink:href="#V"/><use transform="matrix(0.18641975308641948,0,0,0.18641975308641948,65.80617283950608,0)" xlink:href="#au"/><use transform="matrix(0.18641975308641948,0,0,0.18641975308641948,99.36172839506158,0)" xlink:href="#ao"/><use transform="matrix(0.18641975308641948,0,0,0.18641975308641948,118.00370370370352,0)" xlink:href="#av"/><use transform="matrix(0.18641975308641948,0,0,0.18641975308641948,151.55925925925905,0)" xlink:href="#ac"/><use transform="matrix(0.18641975308641948,0,0,0.18641975308641948,185.11481481481457,0)" xlink:href="#X"/><use transform="matrix(0.18641975308641948,0,0,0.18641975308641948,203.75679012345654,0)" xlink:href="#ad"/><use transform="matrix(0.18641975308641948,0,0,0.18641975308641948,237.31234567901203,0)" xlink:href="#aw"/><use transform="matrix(0.18641975308641948,0,0,0.18641975308641948,289.5098765432095,0)" xlink:href="#aj"/><use transform="matrix(0.18641975308641948,0,0,0.18641975308641948,308.15185185185146,0)" xlink:href="#Y"/><use transform="matrix(0.18641975308641948,0,0,0.18641975308641948,341.70740740740695,0)" xlink:href="#ar"/></g><path fill="#333" d="M238-236v10l-27 4-81 79L231-14l25 5v9h-57l-93-119-31 25v80l33 5v9H10v-9l31-5v-208l-31-4v-10h95v10l-30 4v111l112-111-23-4v-10h74" id="ax"/><path fill="#333" d="M166-85c3 67-44 102-111 85l1 64 29 4v9H6v-9l21-4v-217c-7-3-22 1-19-12h46l1 9c11-8 26-14 45-14 47 2 64 36 66 85zM56-13c53 14 83-14 78-72 7-53-33-79-78-60v132" id="ay"/><g id="j"><use transform="matrix(0.18641975308641948,0,0,0.18641975308641948,0,0)" xlink:href="#ax"/><use transform="matrix(0.18641975308641948,0,0,0.18641975308641948,48.28271604938264,0)" xlink:href="#ac"/><use transform="matrix(0.18641975308641948,0,0,0.18641975308641948,81.83827160493814,0)" xlink:href="#aw"/><use transform="matrix(0.18641975308641948,0,0,0.18641975308641948,134.0358024691356,0)" xlink:href="#ay"/><use transform="matrix(0.18641975308641948,0,0,0.18641975308641948,167.59135802469112,0)" xlink:href="#X"/><use transform="matrix(0.18641975308641948,0,0,0.18641975308641948,186.23333333333306,0)" xlink:href="#V"/><use transform="matrix(0.18641975308641948,0,0,0.18641975308641948,215.87407407407375,0)" xlink:href="#au"/><use transform="matrix(0.18641975308641948,0,0,0.18641975308641948,249.42962962962926,0)" xlink:href="#V"/></g><g id="k"><use transform="matrix(0.18641975308641948,0,0,0.18641975308641948,0,0)" xlink:href="#ao"/><use transform="matrix(0.18641975308641948,0,0,0.18641975308641948,18.641975308641946,0)" xlink:href="#V"/><use transform="matrix(0.18641975308641948,0,0,0.18641975308641948,48.28271604938264,0)" xlink:href="#ad"/><use transform="matrix(0.18641975308641948,0,0,0.18641975308641948,81.83827160493814,0)" xlink:href="#ae"/><use transform="matrix(0.18641975308641948,0,0,0.18641975308641948,104.02222222222207,0)" xlink:href="#V"/></g><g id="l"><use transform="matrix(0.18641975308641948,0,0,0.18641975308641948,0,0)" xlink:href="#ax"/><use transform="matrix(0.18641975308641948,0,0,0.18641975308641948,48.28271604938264,0)" xlink:href="#ac"/><use transform="matrix(0.18641975308641948,0,0,0.18641975308641948,81.83827160493814,0)" xlink:href="#ac"/><use transform="matrix(0.18641975308641948,0,0,0.18641975308641948,115.39382716049366,0)" xlink:href="#ae"/><use transform="matrix(0.18641975308641948,0,0,0.18641975308641948,137.57777777777758,0)" xlink:href="#Z"/><use transform="matrix(0.18641975308641948,0,0,0.18641975308641948,171.1333333333331,0)" xlink:href="#aj"/><use transform="matrix(0.18641975308641948,0,0,0.18641975308641948,189.77530864197504,0)" xlink:href="#Y"/><use transform="matrix(0.18641975308641948,0,0,0.18641975308641948,223.3308641975306,0)" xlink:href="#ar"/><use transform="matrix(0.18641975308641948,0,0,0.18641975308641948,252.97160493827124,0)" xlink:href="#ao"/><use transform="matrix(0.18641975308641948,0,0,0.18641975308641948,271.6135802469132,0)" xlink:href="#aj"/><use transform="matrix(0.18641975308641948,0,0,0.18641975308641948,290.25555555555513,0)" xlink:href="#ac"/><use transform="matrix(0.18641975308641948,0,0,0.18641975308641948,323.8111111111106,0)" xlink:href="#Y"/></g><g id="m"><use transform="matrix(0.18641975308641948,0,0,0.18641975308641948,0,0)" xlink:href="#av"/><use transform="matrix(0.18641975308641948,0,0,0.18641975308641948,33.55555555555551,0)" xlink:href="#ac"/><use transform="matrix(0.18641975308641948,0,0,0.18641975308641948,67.11111111111101,0)" xlink:href="#Y"/></g><path fill="#333" d="M75-17c87 13 134-18 134-103 0-78-51-106-134-100v203zm171-102C246 5 139 7 10 0v-9l31-5v-208l-31-4v-10h107c82 0 129 35 129 117" id="az"/><g id="n"><use transform="matrix(0.18641975308641948,0,0,0.18641975308641948,0,0)" xlink:href="#az"/><use transform="matrix(0.18641975308641948,0,0,0.18641975308641948,48.28271604938264,0)" xlink:href="#aj"/><use transform="matrix(0.18641975308641948,0,0,0.18641975308641948,66.92469135802459,0)" xlink:href="#V"/><use transform="matrix(0.18641975308641948,0,0,0.18641975308641948,96.56543209876529,0)" xlink:href="#Y"/><use transform="matrix(0.18641975308641948,0,0,0.18641975308641948,130.1209876543208,0)" xlink:href="#ab"/><use transform="matrix(0.18641975308641948,0,0,0.18641975308641948,156.21975308641953,0)" xlink:href="#ao"/><use transform="matrix(0.18641975308641948,0,0,0.18641975308641948,174.86172839506148,0)" xlink:href="#X"/><use transform="matrix(0.18641975308641948,0,0,0.18641975308641948,193.50370370370342,0)" xlink:href="#V"/><use transform="matrix(0.18641975308641948,0,0,0.18641975308641948,223.1444444444441,0)" xlink:href="#aj"/><use transform="matrix(0.18641975308641948,0,0,0.18641975308641948,241.78641975308605,0)" xlink:href="#ab"/><use transform="matrix(0.18641975308641948,0,0,0.18641975308641948,267.88518518518475,0)" xlink:href="#ao"/><use transform="matrix(0.18641975308641948,0,0,0.18641975308641948,286.5271604938267,0)" xlink:href="#V"/><use transform="matrix(0.18641975308641948,0,0,0.18641975308641948,316.1679012345674,0)" xlink:href="#ae"/><use transform="matrix(0.18641975308641948,0,0,0.18641975308641948,338.35185185185134,0)" xlink:href="#Y"/></g><g id="o"><use transform="matrix(0.18641975308641948,0,0,0.18641975308641948,0,0)" xlink:href="#ap"/><use transform="matrix(0.18641975308641948,0,0,0.18641975308641948,29.640740740740696,0)" xlink:href="#ad"/><use transform="matrix(0.18641975308641948,0,0,0.18641975308641948,63.196296296296204,0)" xlink:href="#ae"/></g><g id="p"><use transform="matrix(0.18641975308641948,0,0,0.18641975308641948,0,0)" xlink:href="#at"/><use transform="matrix(0.18641975308641948,0,0,0.18641975308641948,36.16543209876538,0)" xlink:href="#V"/><use transform="matrix(0.18641975308641948,0,0,0.18641975308641948,65.80617283950608,0)" xlink:href="#au"/><use transform="matrix(0.18641975308641948,0,0,0.18641975308641948,99.36172839506158,0)" xlink:href="#ao"/><use transform="matrix(0.18641975308641948,0,0,0.18641975308641948,118.00370370370352,0)" xlink:href="#V"/><use transform="matrix(0.18641975308641948,0,0,0.18641975308641948,147.64444444444422,0)" xlink:href="#ae"/><use transform="matrix(0.18641975308641948,0,0,0.18641975308641948,169.82839506172814,0)" xlink:href="#ab"/><use transform="matrix(0.18641975308641948,0,0,0.18641975308641948,195.92716049382688,0)" xlink:href="#ao"/><use transform="matrix(0.18641975308641948,0,0,0.18641975308641948,214.56913580246882,0)" xlink:href="#V"/><use transform="matrix(0.18641975308641948,0,0,0.18641975308641948,244.2098765432095,0)" xlink:href="#X"/><use transform="matrix(0.18641975308641948,0,0,0.18641975308641948,262.8518518518515,0)" xlink:href="#X"/><use transform="matrix(0.18641975308641948,0,0,0.18641975308641948,281.4938271604934,0)" xlink:href="#ad"/><use transform="matrix(0.18641975308641948,0,0,0.18641975308641948,315.0493827160489,0)" xlink:href="#Y"/><use transform="matrix(0.18641975308641948,0,0,0.18641975308641948,348.6049382716044,0)" xlink:href="#aq"/></g><path fill="#333" d="M75-131c50 2 93 3 93-48 0-46-48-41-93-41v89zm0 115c55 4 111 6 111-51 0-53-58-48-111-48v99zm148-52C223 24 102-3 10 0v-9l31-5v-208l-31-4v-10c77 6 193-24 194 56 0 33-20 48-48 54 36 5 67 20 67 58" id="aA"/><g id="q"><use transform="matrix(0.18641975308641948,0,0,0.18641975308641948,0,0)" xlink:href="#aA"/><use transform="matrix(0.18641975308641948,0,0,0.18641975308641948,44.74074074074068,0)" xlink:href="#V"/><use transform="matrix(0.18641975308641948,0,0,0.18641975308641948,74.38148148148137,0)" xlink:href="#Z"/><use transform="matrix(0.18641975308641948,0,0,0.18641975308641948,107.93703703703687,0)" xlink:href="#ar"/><use transform="matrix(0.18641975308641948,0,0,0.18641975308641948,137.57777777777756,0)" xlink:href="#ae"/><use transform="matrix(0.18641975308641948,0,0,0.18641975308641948,159.76172839506148,0)" xlink:href="#ag"/></g><path fill="#333" d="M152 0h-7L59-203v189l32 5v9H10v-9l31-5v-208l-31-4v-10h72l76 180 84-180h68v10l-31 4v208l31 5v9h-96v-9l32-5v-189" id="aB"/><g id="r"><use transform="matrix(0.18641975308641948,0,0,0.18641975308641948,0,0)" xlink:href="#aB"/><use transform="matrix(0.18641975308641948,0,0,0.18641975308641948,59.65432098765423,0)" xlink:href="#ad"/><use transform="matrix(0.18641975308641948,0,0,0.18641975308641948,93.20987654320973,0)" xlink:href="#X"/><use transform="matrix(0.18641975308641948,0,0,0.18641975308641948,111.85185185185169,0)" xlink:href="#ao"/><use transform="matrix(0.18641975308641948,0,0,0.18641975308641948,130.49382716049362,0)" xlink:href="#aj"/><use transform="matrix(0.18641975308641948,0,0,0.18641975308641948,149.13580246913557,0)" xlink:href="#al"/></g><path fill="#333" d="M52-115c0 93 80 130 150 87l7-35h11l-1 55c-23 7-52 12-83 12C60 4 19-37 15-115c-5-113 97-141 201-114l1 51h-12l-5-30c-15-9-39-16-62-16-66 0-86 41-86 109" id="aC"/><path fill="#333" d="M42-37c43 0 23 74-4 81-7 4-14 8-24 11V42c17-5 29-14 31-30C42-2 20 1 21-18c0-12 9-19 21-19" id="aD"/><g id="s"><use transform="matrix(0.18641975308641948,0,0,0.18641975308641948,0,0)" xlink:href="#aC"/><use transform="matrix(0.18641975308641948,0,0,0.18641975308641948,44.74074074074068,0)" xlink:href="#W"/><use transform="matrix(0.18641975308641948,0,0,0.18641975308641948,78.29629629629619,0)" xlink:href="#ar"/><use transform="matrix(0.18641975308641948,0,0,0.18641975308641948,107.9370370370369,0)" xlink:href="#Y"/><use transform="matrix(0.18641975308641948,0,0,0.18641975308641948,141.4925925925924,0)" xlink:href="#Y"/><use transform="matrix(0.18641975308641948,0,0,0.18641975308641948,175.0481481481479,0)" xlink:href="#V"/><use transform="matrix(0.18641975308641948,0,0,0.18641975308641948,204.68888888888858,0)" xlink:href="#X"/><use transform="matrix(0.18641975308641948,0,0,0.18641975308641948,223.33086419753053,0)" xlink:href="#al"/><use transform="matrix(0.18641975308641948,0,0,0.18641975308641948,245.51481481481446,0)" xlink:href="#aC"/><use transform="matrix(0.18641975308641948,0,0,0.18641975308641948,290.25555555555513,0)" xlink:href="#ac"/><use transform="matrix(0.18641975308641948,0,0,0.18641975308641948,323.8111111111106,0)" xlink:href="#Y"/><use transform="matrix(0.18641975308641948,0,0,0.18641975308641948,357.3666666666661,0)" xlink:href="#ao"/><use transform="matrix(0.18641975308641948,0,0,0.18641975308641948,376.008641975308,0)" xlink:href="#V"/><use transform="matrix(0.18641975308641948,0,0,0.18641975308641948,405.6493827160487,0)" xlink:href="#Y"/><use transform="matrix(0.18641975308641948,0,0,0.18641975308641948,439.2049382716042,0)" xlink:href="#ao"/><use transform="matrix(0.18641975308641948,0,0,0.18641975308641948,457.84691358024617,0)" xlink:href="#aD"/></g><g id="t"><use transform="matrix(0.18641975308641948,0,0,0.18641975308641948,0,0)" xlink:href="#ad"/><use transform="matrix(0.18641975308641948,0,0,0.18641975308641948,33.55555555555551,0)" xlink:href="#aw"/></g><path fill="#333" d="M56-15s89 2 122-6l10-45h12l-5 66H17v-17l132-204c-33 1-75-1-103 4l-6 37H28v-56h161v15" id="aE"/><g id="u"><use transform="matrix(0.18641975308641948,0,0,0.18641975308641948,0,0)" xlink:href="#aE"/><use transform="matrix(0.18641975308641948,0,0,0.18641975308641948,40.825925925925866,0)" xlink:href="#aj"/><use transform="matrix(0.18641975308641948,0,0,0.18641975308641948,59.46790123456781,0)" xlink:href="#V"/><use transform="matrix(0.18641975308641948,0,0,0.18641975308641948,89.1086419753085,0)" xlink:href="#X"/><use transform="matrix(0.18641975308641948,0,0,0.18641975308641948,107.75061728395046,0)" xlink:href="#aq"/><use transform="matrix(0.18641975308641948,0,0,0.18641975308641948,141.30617283950596,0)" xlink:href="#ae"/><use transform="matrix(0.18641975308641948,0,0,0.18641975308641948,163.4901234567899,0)" xlink:href="#ad"/><use transform="matrix(0.18641975308641948,0,0,0.18641975308641948,197.04567901234537,0)" xlink:href="#ay"/><use transform="matrix(0.18641975308641948,0,0,0.18641975308641948,230.60123456790095,0)" xlink:href="#ay"/><use transform="matrix(0.18641975308641948,0,0,0.18641975308641948,264.1567901234564,0)" xlink:href="#V"/><use transform="matrix(0.18641975308641948,0,0,0.18641975308641948,293.7975308641971,0)" xlink:href="#Y"/></g><path fill="#333" d="M60-80l68-73c-7-3-20 0-17-12h58c3 13-13 9-20 12l-47 48 60 93c7 3 21-1 18 12h-68c-3-12 9-9 15-12L82-83 60-60v48c7 3 21-1 18 12H10v-8l21-4v-226l-24-4v-8h53v170" id="aF"/><g id="v"><use transform="matrix(0.18641975308641948,0,0,0.18641975308641948,0,0)" xlink:href="#V"/><use transform="matrix(0.18641975308641948,0,0,0.18641975308641948,29.640740740740696,0)" xlink:href="#ag"/><use transform="matrix(0.18641975308641948,0,0,0.18641975308641948,50.51975308641969,0)" xlink:href="#ag"/><use transform="matrix(0.18641975308641948,0,0,0.18641975308641948,72.70370370370361,0)" xlink:href="#V"/><use transform="matrix(0.18641975308641948,0,0,0.18641975308641948,102.34444444444432,0)" xlink:href="#aF"/><use transform="matrix(0.18641975308641948,0,0,0.18641975308641948,135.8999999999998,0)" xlink:href="#ao"/><use transform="matrix(0.18641975308641948,0,0,0.18641975308641948,154.54197530864175,0)" xlink:href="#aj"/><use transform="matrix(0.18641975308641948,0,0,0.18641975308641948,173.1839506172837,0)" xlink:href="#av"/></g><g id="w"><use transform="matrix(0.18641975308641948,0,0,0.18641975308641948,0,0)" xlink:href="#ap"/><use transform="matrix(0.18641975308641948,0,0,0.18641975308641948,29.640740740740696,0)" xlink:href="#ad"/></g><g id="x"><use transform="matrix(0.18641975308641948,0,0,0.18641975308641948,0,0)" xlink:href="#V"/><use transform="matrix(0.18641975308641948,0,0,0.18641975308641948,29.640740740740696,0)" xlink:href="#ae"/><use transform="matrix(0.18641975308641948,0,0,0.18641975308641948,51.824691358024616,0)" xlink:href="#ae"/><use transform="matrix(0.18641975308641948,0,0,0.18641975308641948,74.00864197530854,0)" xlink:href="#V"/><use transform="matrix(0.18641975308641948,0,0,0.18641975308641948,103.64938271604923,0)" xlink:href="#aj"/><use transform="matrix(0.18641975308641948,0,0,0.18641975308641948,122.29135802469118,0)" xlink:href="#af"/><use transform="matrix(0.18641975308641948,0,0,0.18641975308641948,151.93209876543187,0)" xlink:href="#W"/><use transform="matrix(0.18641975308641948,0,0,0.18641975308641948,185.4876543209874,0)" xlink:href="#V"/><use transform="matrix(0.18641975308641948,0,0,0.18641975308641948,215.12839506172813,0)" xlink:href="#Y"/></g><path fill="#333" d="M75-108c48 3 76-12 76-58s-28-57-76-54v112zm111-58c-1 60-46 78-111 74v78l37 5v9H13v-9l28-5v-208l-31-4v-10c81 1 178-14 176 70" id="aG"/><g id="y"><use transform="matrix(0.18641975308641948,0,0,0.18641975308641948,0,0)" xlink:href="#aG"/><use transform="matrix(0.18641975308641948,0,0,0.18641975308641948,37.28395061728389,0)" xlink:href="#ae"/><use transform="matrix(0.18641975308641948,0,0,0.18641975308641948,59.46790123456781,0)" xlink:href="#ac"/><use transform="matrix(0.18641975308641948,0,0,0.18641975308641948,93.02345679012332,0)" xlink:href="#Z"/><use transform="matrix(0.18641975308641948,0,0,0.18641975308641948,126.57901234567882,0)" xlink:href="#ad"/><use transform="matrix(0.18641975308641948,0,0,0.18641975308641948,160.13456790123433,0)" xlink:href="#aF"/><use transform="matrix(0.18641975308641948,0,0,0.18641975308641948,193.69012345678985,0)" xlink:href="#ao"/><use transform="matrix(0.18641975308641948,0,0,0.18641975308641948,212.3320987654318,0)" xlink:href="#Z"/><use transform="matrix(0.18641975308641948,0,0,0.18641975308641948,245.88765432098728,0)" xlink:href="#V"/><use transform="matrix(0.18641975308641948,0,0,0.18641975308641948,275.528395061728,0)" xlink:href="#ao"/><use transform="matrix(0.18641975308641948,0,0,0.18641975308641948,294.17037037036994,0)" xlink:href="#ar"/><use transform="matrix(0.18641975308641948,0,0,0.18641975308641948,323.8111111111106,0)" xlink:href="#aj"/><use transform="matrix(0.18641975308641948,0,0,0.18641975308641948,342.4530864197526,0)" xlink:href="#X"/><use transform="matrix(0.18641975308641948,0,0,0.18641975308641948,361.0950617283945,0)" xlink:href="#ab"/><use transform="matrix(0.18641975308641948,0,0,0.18641975308641948,387.19382716049324,0)" xlink:href="#V"/><use transform="matrix(0.18641975308641948,0,0,0.18641975308641948,416.8345679012339,0)" xlink:href="#aj"/><use transform="matrix(0.18641975308641948,0,0,0.18641975308641948,435.4765432098759,0)" xlink:href="#ao"/><use transform="matrix(0.18641975308641948,0,0,0.18641975308641948,454.1185185185178,0)" xlink:href="#V"/><use transform="matrix(0.18641975308641948,0,0,0.18641975308641948,483.75925925925856,0)" xlink:href="#Y"/></g><g id="z"><use transform="matrix(0.18641975308641948,0,0,0.18641975308641948,0,0)" xlink:href="#aw"/><use transform="matrix(0.18641975308641948,0,0,0.18641975308641948,52.197530864197454,0)" xlink:href="#aj"/><use transform="matrix(0.18641975308641948,0,0,0.18641975308641948,70.8395061728394,0)" xlink:href="#ao"/></g><g id="A"><use transform="matrix(0.18641975308641948,0,0,0.18641975308641948,0,0)" xlink:href="#aq"/><use transform="matrix(0.18641975308641948,0,0,0.18641975308641948,33.55555555555551,0)" xlink:href="#V"/><use transform="matrix(0.18641975308641948,0,0,0.18641975308641948,63.196296296296204,0)" xlink:href="#ae"/><use transform="matrix(0.18641975308641948,0,0,0.18641975308641948,85.38024691358012,0)" xlink:href="#aj"/><use transform="matrix(0.18641975308641948,0,0,0.18641975308641948,104.02222222222207,0)" xlink:href="#Y"/><use transform="matrix(0.18641975308641948,0,0,0.18641975308641948,137.57777777777758,0)" xlink:href="#aq"/><use transform="matrix(0.18641975308641948,0,0,0.18641975308641948,171.1333333333331,0)" xlink:href="#V"/><use transform="matrix(0.18641975308641948,0,0,0.18641975308641948,200.77407407407378,0)" xlink:href="#aw"/></g><g id="B"><use transform="matrix(0.18641975308641948,0,0,0.18641975308641948,0,0)" xlink:href="#ax"/><use transform="matrix(0.18641975308641948,0,0,0.18641975308641948,48.28271604938264,0)" xlink:href="#ad"/><use transform="matrix(0.18641975308641948,0,0,0.18641975308641948,81.83827160493814,0)" xlink:href="#Y"/><use transform="matrix(0.18641975308641948,0,0,0.18641975308641948,115.39382716049366,0)" xlink:href="#Z"/><use transform="matrix(0.18641975308641948,0,0,0.18641975308641948,148.94938271604917,0)" xlink:href="#V"/><use transform="matrix(0.18641975308641948,0,0,0.18641975308641948,178.59012345678985,0)" xlink:href="#Y"/><use transform="matrix(0.18641975308641948,0,0,0.18641975308641948,212.14567901234537,0)" xlink:href="#Y"/><use transform="matrix(0.18641975308641948,0,0,0.18641975308641948,245.70123456790088,0)" xlink:href="#ad"/><use transform="matrix(0.18641975308641948,0,0,0.18641975308641948,279.25679012345637,0)" xlink:href="#ao"/><use transform="matrix(0.18641975308641948,0,0,0.18641975308641948,297.89876543209834,0)" xlink:href="#ap"/><use transform="matrix(0.18641975308641948,0,0,0.18641975308641948,327.539506172839,0)" xlink:href="#V"/><use transform="matrix(0.18641975308641948,0,0,0.18641975308641948,357.1802469135797,0)" xlink:href="#Y"/><use transform="matrix(0.18641975308641948,0,0,0.18641975308641948,390.7358024691352,0)" xlink:href="#aD"/></g><g id="C"><use transform="matrix(0.18641975308641948,0,0,0.18641975308641948,0,0)" xlink:href="#av"/><use transform="matrix(0.18641975308641948,0,0,0.18641975308641948,33.55555555555551,0)" xlink:href="#aj"/><use transform="matrix(0.18641975308641948,0,0,0.18641975308641948,52.197530864197454,0)" xlink:href="#V"/><use transform="matrix(0.18641975308641948,0,0,0.18641975308641948,81.83827160493814,0)" xlink:href="#X"/><use transform="matrix(0.18641975308641948,0,0,0.18641975308641948,100.4802469135801,0)" xlink:href="#V"/><use transform="matrix(0.18641975308641948,0,0,0.18641975308641948,130.1209876543208,0)" xlink:href="#Y"/></g><g id="D"><use transform="matrix(0.18641975308641948,0,0,0.18641975308641948,0,0)" xlink:href="#aa"/><use transform="matrix(0.18641975308641948,0,0,0.18641975308641948,44.74074074074068,0)" xlink:href="#V"/><use transform="matrix(0.18641975308641948,0,0,0.18641975308641948,74.38148148148137,0)" xlink:href="#ao"/><use transform="matrix(0.18641975308641948,0,0,0.18641975308641948,93.02345679012332,0)" xlink:href="#ac"/><use transform="matrix(0.18641975308641948,0,0,0.18641975308641948,126.57901234567882,0)" xlink:href="#ad"/><use transform="matrix(0.18641975308641948,0,0,0.18641975308641948,160.13456790123433,0)" xlink:href="#ae"/><use transform="matrix(0.18641975308641948,0,0,0.18641975308641948,182.31851851851826,0)" xlink:href="#V"/><use transform="matrix(0.18641975308641948,0,0,0.18641975308641948,211.95925925925894,0)" xlink:href="#Y"/></g><use transform="matrix(0.18641975308641948,0,0,0.18641975308641948,0,0)" xlink:href="#am" id="E"/><g id="F"><use transform="matrix(0.18641975308641948,0,0,0.18641975308641948,0,0)" xlink:href="#W"/><use transform="matrix(0.18641975308641948,0,0,0.18641975308641948,33.55555555555551,0)" xlink:href="#ac"/><use transform="matrix(0.18641975308641948,0,0,0.18641975308641948,67.11111111111101,0)" xlink:href="#W"/><use transform="matrix(0.18641975308641948,0,0,0.18641975308641948,100.66666666666652,0)" xlink:href="#V"/><use transform="matrix(0.18641975308641948,0,0,0.18641975308641948,130.3074074074072,0)" xlink:href="#aw"/></g><path fill="#333" d="M81-9v9H4v-9l26-5 81-224h33l83 224 30 5v9h-99v-9l31-5-23-68H73L49-14zm38-203L78-98h82" id="aH"/><path fill="#333" d="M240-154L185 4h-14l-41-109L90 4H77L20-153c-7-3-23 1-20-12h79v8l-27 4L91-41l40-108h14l40 109 38-113-28-4v-8h63v8" id="aI"/><g id="G"><use transform="matrix(0.18641975308641948,0,0,0.18641975308641948,0,0)" xlink:href="#aH"/><use transform="matrix(0.18641975308641948,0,0,0.18641975308641948,48.28271604938264,0)" xlink:href="#ad"/><use transform="matrix(0.18641975308641948,0,0,0.18641975308641948,81.83827160493814,0)" xlink:href="#ag"/><use transform="matrix(0.18641975308641948,0,0,0.18641975308641948,104.02222222222207,0)" xlink:href="#aI"/><use transform="matrix(0.18641975308641948,0,0,0.18641975308641948,152.30493827160473,0)" xlink:href="#ar"/><use transform="matrix(0.18641975308641948,0,0,0.18641975308641948,181.9456790123454,0)" xlink:href="#Y"/><use transform="matrix(0.18641975308641948,0,0,0.18641975308641948,215.50123456790092,0)" xlink:href="#Z"/></g><g id="H"><use transform="matrix(0.18641975308641948,0,0,0.18641975308641948,0,0)" xlink:href="#ai"/><use transform="matrix(0.18641975308641948,0,0,0.18641975308641948,37.28395061728389,0)" xlink:href="#ad"/><use transform="matrix(0.18641975308641948,0,0,0.18641975308641948,70.8395061728394,0)" xlink:href="#ay"/><use transform="matrix(0.18641975308641948,0,0,0.18641975308641948,104.39506172839492,0)" xlink:href="#ay"/><use transform="matrix(0.18641975308641948,0,0,0.18641975308641948,137.95061728395044,0)" xlink:href="#ac"/><use transform="matrix(0.18641975308641948,0,0,0.18641975308641948,171.50617283950595,0)" xlink:href="#ae"/><use transform="matrix(0.18641975308641948,0,0,0.18641975308641948,193.69012345678988,0)" xlink:href="#ao"/></g><g id="I"><use transform="matrix(0.18641975308641948,0,0,0.18641975308641948,0,0)" xlink:href="#aB"/><use transform="matrix(0.18641975308641948,0,0,0.18641975308641948,59.65432098765423,0)" xlink:href="#ar"/><use transform="matrix(0.18641975308641948,0,0,0.18641975308641948,89.29506172839493,0)" xlink:href="#Y"/><use transform="matrix(0.18641975308641948,0,0,0.18641975308641948,122.85061728395044,0)" xlink:href="#aq"/><use transform="matrix(0.18641975308641948,0,0,0.18641975308641948,156.40617283950596,0)" xlink:href="#V"/><use transform="matrix(0.18641975308641948,0,0,0.18641975308641948,186.04691358024667,0)" xlink:href="#X"/><use transform="matrix(0.18641975308641948,0,0,0.18641975308641948,204.68888888888864,0)" xlink:href="#Y"/><use transform="matrix(0.18641975308641948,0,0,0.18641975308641948,238.24444444444413,0)" xlink:href="#Z"/><use transform="matrix(0.18641975308641948,0,0,0.18641975308641948,271.7999999999996,0)" xlink:href="#V"/></g><g id="J"><use transform="matrix(0.18641975308641948,0,0,0.18641975308641948,0,0)" xlink:href="#ai"/><use transform="matrix(0.18641975308641948,0,0,0.18641975308641948,37.28395061728389,0)" xlink:href="#ao"/><use transform="matrix(0.18641975308641948,0,0,0.18641975308641948,55.925925925925846,0)" xlink:href="#ar"/><use transform="matrix(0.18641975308641948,0,0,0.18641975308641948,85.56666666666653,0)" xlink:href="#Y"/><use transform="matrix(0.18641975308641948,0,0,0.18641975308641948,119.12222222222205,0)" xlink:href="#Z"/><use transform="matrix(0.18641975308641948,0,0,0.18641975308641948,152.67777777777755,0)" xlink:href="#ar"/><use transform="matrix(0.18641975308641948,0,0,0.18641975308641948,182.31851851851826,0)" xlink:href="#ae"/><use transform="matrix(0.18641975308641948,0,0,0.18641975308641948,204.50246913580222,0)" xlink:href="#Z"/><use transform="matrix(0.18641975308641948,0,0,0.18641975308641948,238.0580246913577,0)" xlink:href="#aj"/><use transform="matrix(0.18641975308641948,0,0,0.18641975308641948,256.69999999999965,0)" xlink:href="#ab"/><use transform="matrix(0.18641975308641948,0,0,0.18641975308641948,282.7987654320984,0)" xlink:href="#aj"/><use transform="matrix(0.18641975308641948,0,0,0.18641975308641948,301.44074074074035,0)" xlink:href="#V"/><use transform="matrix(0.18641975308641948,0,0,0.18641975308641948,331.08148148148103,0)" xlink:href="#ae"/><use transform="matrix(0.18641975308641948,0,0,0.18641975308641948,353.26543209876496,0)" xlink:href="#ad"/><use transform="matrix(0.18641975308641948,0,0,0.18641975308641948,386.8209876543204,0)" xlink:href="#Y"/><use transform="matrix(0.18641975308641948,0,0,0.18641975308641948,420.37654320987593,0)" xlink:href="#aq"/></g><g id="K"><use transform="matrix(0.18641975308641948,0,0,0.18641975308641948,0,0)" xlink:href="#W"/><use transform="matrix(0.18641975308641948,0,0,0.18641975308641948,33.55555555555551,0)" xlink:href="#ac"/><use transform="matrix(0.18641975308641948,0,0,0.18641975308641948,67.11111111111101,0)" xlink:href="#W"/><use transform="matrix(0.18641975308641948,0,0,0.18641975308641948,100.66666666666652,0)" xlink:href="#V"/></g><g id="L"><use transform="matrix(0.18641975308641948,0,0,0.18641975308641948,0,0)" xlink:href="#ax"/><use transform="matrix(0.18641975308641948,0,0,0.18641975308641948,48.28271604938264,0)" xlink:href="#ac"/><use transform="matrix(0.18641975308641948,0,0,0.18641975308641948,81.83827160493814,0)" xlink:href="#ab"/><use transform="matrix(0.18641975308641948,0,0,0.18641975308641948,107.93703703703687,0)" xlink:href="#ao"/><use transform="matrix(0.18641975308641948,0,0,0.18641975308641948,126.57901234567882,0)" xlink:href="#V"/><use transform="matrix(0.18641975308641948,0,0,0.18641975308641948,156.21975308641953,0)" xlink:href="#Y"/></g><g id="M"><use transform="matrix(0.18641975308641948,0,0,0.18641975308641948,0,0)" xlink:href="#ag"/><use transform="matrix(0.18641975308641948,0,0,0.18641975308641948,22.18395061728392,0)" xlink:href="#ah"/><use transform="matrix(0.18641975308641948,0,0,0.18641975308641948,55.73950617283943,0)" xlink:href="#ae"/></g><g id="N"><use transform="matrix(0.18641975308641948,0,0,0.18641975308641948,0,0)" xlink:href="#az"/><use transform="matrix(0.18641975308641948,0,0,0.18641975308641948,48.28271604938264,0)" xlink:href="#ac"/><use transform="matrix(0.18641975308641948,0,0,0.18641975308641948,81.83827160493814,0)" xlink:href="#aF"/><use transform="matrix(0.18641975308641948,0,0,0.18641975308641948,115.39382716049366,0)" xlink:href="#ad"/><use transform="matrix(0.18641975308641948,0,0,0.18641975308641948,148.94938271604917,0)" xlink:href="#aw"/><use transform="matrix(0.18641975308641948,0,0,0.18641975308641948,201.1469135802466,0)" xlink:href="#V"/><use transform="matrix(0.18641975308641948,0,0,0.18641975308641948,230.78765432098731,0)" xlink:href="#Y"/><use transform="matrix(0.18641975308641948,0,0,0.18641975308641948,264.3432098765428,0)" xlink:href="#ao"/><use transform="matrix(0.18641975308641948,0,0,0.18641975308641948,282.9851851851847,0)" xlink:href="#ar"/><use transform="matrix(0.18641975308641948,0,0,0.18641975308641948,312.6259259259254,0)" xlink:href="#ao"/><use transform="matrix(0.18641975308641948,0,0,0.18641975308641948,331.2679012345674,0)" xlink:href="#aj"/><use transform="matrix(0.18641975308641948,0,0,0.18641975308641948,349.9098765432093,0)" xlink:href="#ac"/><use transform="matrix(0.18641975308641948,0,0,0.18641975308641948,383.4654320987648,0)" xlink:href="#Y"/><use transform="matrix(0.18641975308641948,0,0,0.18641975308641948,417.02098765432027,0)" xlink:href="#V"/><use transform="matrix(0.18641975308641948,0,0,0.18641975308641948,446.661728395061,0)" xlink:href="#Y"/></g><g id="O"><use transform="matrix(0.18641975308641948,0,0,0.18641975308641948,0,0)" xlink:href="#aa"/><use transform="matrix(0.18641975308641948,0,0,0.18641975308641948,44.74074074074068,0)" xlink:href="#V"/><use transform="matrix(0.18641975308641948,0,0,0.18641975308641948,74.38148148148137,0)" xlink:href="#ay"/><use transform="matrix(0.18641975308641948,0,0,0.18641975308641948,107.93703703703687,0)" xlink:href="#ac"/><use transform="matrix(0.18641975308641948,0,0,0.18641975308641948,141.4925925925924,0)" xlink:href="#ae"/><use transform="matrix(0.18641975308641948,0,0,0.18641975308641948,163.67654320987631,0)" xlink:href="#ao"/><use transform="matrix(0.18641975308641948,0,0,0.18641975308641948,182.31851851851826,0)" xlink:href="#aj"/><use transform="matrix(0.18641975308641948,0,0,0.18641975308641948,200.9604938271602,0)" xlink:href="#Y"/><use transform="matrix(0.18641975308641948,0,0,0.18641975308641948,234.5160493827157,0)" xlink:href="#aq"/></g><path fill="#333" d="M10 0v-9l31-5v-208l-31-4v-10h95v10l-30 4v93h110v-93l-30-4v-10h94v10l-30 4v208l30 5v9h-94v-9l30-5v-99H75v99l30 5v9H10" id="aJ"/><g id="P"><use transform="matrix(0.18641975308641948,0,0,0.18641975308641948,0,0)" xlink:href="#aJ"/><use transform="matrix(0.18641975308641948,0,0,0.18641975308641948,48.28271604938264,0)" xlink:href="#V"/><use transform="matrix(0.18641975308641948,0,0,0.18641975308641948,77.92345679012334,0)" xlink:href="#ao"/><use transform="matrix(0.18641975308641948,0,0,0.18641975308641948,96.56543209876529,0)" xlink:href="#V"/><use transform="matrix(0.18641975308641948,0,0,0.18641975308641948,126.20617283950598,0)" xlink:href="#ae"/><use transform="matrix(0.18641975308641948,0,0,0.18641975308641948,148.3901234567899,0)" xlink:href="#ac"/><use transform="matrix(0.18641975308641948,0,0,0.18641975308641948,181.9456790123454,0)" xlink:href="#aq"/><use transform="matrix(0.18641975308641948,0,0,0.18641975308641948,215.50123456790092,0)" xlink:href="#V"/><use transform="matrix(0.18641975308641948,0,0,0.18641975308641948,245.14197530864166,0)" xlink:href="#Y"/><use transform="matrix(0.18641975308641948,0,0,0.18641975308641948,278.6975308641971,0)" xlink:href="#V"/></g><path fill="#333" d="M161-154L85 37C75 66 49 86 8 75V39c18-2 6 24 29 21 30-4 38-32 47-58L21-153c-7-3-20 0-17-12h77v8l-26 4 45 116 43-116-26-4v-8h62v8" id="aK"/><g id="Q"><use transform="matrix(0.18641975308641948,0,0,0.18641975308641948,0,0)" xlink:href="#ai"/><use transform="matrix(0.18641975308641948,0,0,0.18641975308641948,37.28395061728389,0)" xlink:href="#aK"/><use transform="matrix(0.18641975308641948,0,0,0.18641975308641948,70.8395061728394,0)" xlink:href="#ab"/><use transform="matrix(0.18641975308641948,0,0,0.18641975308641948,96.93827160493812,0)" xlink:href="#ao"/><use transform="matrix(0.18641975308641948,0,0,0.18641975308641948,115.58024691358007,0)" xlink:href="#V"/><use transform="matrix(0.18641975308641948,0,0,0.18641975308641948,145.22098765432077,0)" xlink:href="#aw"/><use transform="matrix(0.18641975308641948,0,0,0.18641975308641948,197.41851851851823,0)" xlink:href="#V"/></g><g id="R"><use transform="matrix(0.18641975308641948,0,0,0.18641975308641948,0,0)" xlink:href="#ad"/><use transform="matrix(0.18641975308641948,0,0,0.18641975308641948,33.55555555555551,0)" xlink:href="#Y"/><use transform="matrix(0.18641975308641948,0,0,0.18641975308641948,67.11111111111101,0)" xlink:href="#ab"/><use transform="matrix(0.18641975308641948,0,0,0.18641975308641948,93.20987654320975,0)" xlink:href="#ao"/><use transform="matrix(0.18641975308641948,0,0,0.18641975308641948,111.85185185185169,0)" xlink:href="#ae"/><use transform="matrix(0.18641975308641948,0,0,0.18641975308641948,134.0358024691356,0)" xlink:href="#ad"/><use transform="matrix(0.18641975308641948,0,0,0.18641975308641948,167.59135802469112,0)" xlink:href="#aF"/><use transform="matrix(0.18641975308641948,0,0,0.18641975308641948,201.1469135802466,0)" xlink:href="#ao"/><use transform="matrix(0.18641975308641948,0,0,0.18641975308641948,219.78888888888855,0)" xlink:href="#ad"/><use transform="matrix(0.18641975308641948,0,0,0.18641975308641948,253.34444444444412,0)" xlink:href="#ae"/><use transform="matrix(0.18641975308641948,0,0,0.18641975308641948,275.528395061728,0)" xlink:href="#aj"/><use transform="matrix(0.18641975308641948,0,0,0.18641975308641948,294.17037037036994,0)" xlink:href="#V"/><use transform="matrix(0.18641975308641948,0,0,0.18641975308641948,323.8111111111106,0)" xlink:href="#ae"/><use transform="matrix(0.18641975308641948,0,0,0.18641975308641948,345.99506172839455,0)" xlink:href="#ao"/></g><g id="S"><use transform="matrix(0.18641975308641948,0,0,0.18641975308641948,0,0)" xlink:href="#av"/><use transform="matrix(0.18641975308641948,0,0,0.18641975308641948,33.55555555555551,0)" xlink:href="#V"/><use transform="matrix(0.18641975308641948,0,0,0.18641975308641948,63.196296296296204,0)" xlink:href="#ae"/><use transform="matrix(0.18641975308641948,0,0,0.18641975308641948,85.38024691358012,0)" xlink:href="#aI"/><use transform="matrix(0.18641975308641948,0,0,0.18641975308641948,133.66296296296275,0)" xlink:href="#ar"/><use transform="matrix(0.18641975308641948,0,0,0.18641975308641948,163.30370370370343,0)" xlink:href="#X"/><use transform="matrix(0.18641975308641948,0,0,0.18641975308641948,181.94567901234538,0)" xlink:href="#ao"/><use transform="matrix(0.18641975308641948,0,0,0.18641975308641948,200.58765432098733,0)" xlink:href="#V"/><use transform="matrix(0.18641975308641948,0,0,0.18641975308641948,230.228395061728,0)" xlink:href="#ao"/><use transform="matrix(0.18641975308641948,0,0,0.18641975308641948,248.87037037036995,0)" xlink:href="#V"/></g><g id="T"><use transform="matrix(0.18641975308641948,0,0,0.18641975308641948,0,0)" xlink:href="#az"/><use transform="matrix(0.18641975308641948,0,0,0.18641975308641948,48.28271604938264,0)" xlink:href="#ar"/><use transform="matrix(0.18641975308641948,0,0,0.18641975308641948,77.92345679012334,0)" xlink:href="#ao"/><use transform="matrix(0.18641975308641948,0,0,0.18641975308641948,96.56543209876529,0)" xlink:href="#V"/><use transform="matrix(0.18641975308641948,0,0,0.18641975308641948,126.20617283950598,0)" xlink:href="#Y"/></g></defs></g></svg>